<?xml version="1.0" encoding="UTF-8" standalone="no"?>
<svg
   height="48px"
   viewBox="0 -960 960 960"
   width="48px"
   fill="#000000"
   version="1.1"
   id="svg1"
   sodipodi:docname="format_colour_fill.svg"
   inkscape:version="1.4.2 (f4327f4, 2025-05-13)"
   xmlns:inkscape="http://www.inkscape.org/namespaces/inkscape"
   xmlns:sodipodi="http://sodipodi.sourceforge.net/DTD/sodipodi-0.dtd"
   xmlns="http://www.w3.org/2000/svg"
   xmlns:svg="http://www.w3.org/2000/svg">
  <defs
     id="defs1" />
  <sodipodi:namedview
     id="namedview1"
     pagecolor="#ffffff"
     bordercolor="#000000"
     borderopacity="0.25"
     inkscape:showpageshadow="2"
     inkscape:pageopacity="0.0"
     inkscape:pagecheckerboard="0"
     inkscape:deskcolor="#d1d1d1"
     inkscape:zoom="11.991353"
     inkscape:cx="23.642037"
     inkscape:cy="26.435717"
     inkscape:window-width="1920"
     inkscape:window-height="1009"
     inkscape:window-x="-8"
     inkscape:window-y="-8"
     inkscape:window-maximized="1"
     inkscape:current-layer="svg1" />
  <path
     id="path1"
     d="m 286.52343,-819.49219 -43.00781,43.00781 116.01562,115.97657 -189.02343,189.14062 c -15.33334,15.18667 -23.00781,34.00531 -23.00781,56.44531 -1e-5,22.44667 7.67447,41.26531 23.00781,56.44531 l 178.00781,177.96876 C 363.84895,-165.17448 381.83333,-157.5 402.5,-157.5 c 20.66666,0 38.6901,-7.67448 54.02343,-23.00781 l 178.00781,-177.96876 c 15.33334,-15.16666 22.96876,-33.95385 22.96876,-56.36718 0,-22.42 -7.74126,-41.41313 -23.28126,-56.95313 z M 402.5,-617.5 601.52343,-418.47657 H 203.51562 Z m 338.00781,271.01562 c -7.33334,8.66667 -14.83334,18.00782 -22.5,28.00781 -7.66667,10 -14.15886,19.30209 -19.49219,27.96876 -9.33333,13.99999 -16.65885,27.63937 -21.99219,40.85937 -5.33333,13.21333 -8.00781,25.58177 -8.00781,37.14844 0,19.8 7.01562,36.75937 21.01562,50.85937 14.00001,14.1 30.92126,21.13282 50.78126,21.13282 19.86,0 36.83656,-7.03282 50.97656,-21.13282 14.14,-14.1 21.21094,-31.05937 21.21094,-50.85937 0,-11.56667 -2.63542,-23.93511 -7.96876,-37.14844 -5.33333,-13.22 -12.69791,-26.85938 -22.03124,-40.85937 -5.33334,-8.66667 -11.82553,-17.96876 -19.49219,-27.96876 -7.66667,-10 -15.16667,-19.34114 -22.5,-28.00781 z" />
</svg>
